{
  "accessors": [
    {
      "bufferView": 0,
      "componentType": 5125,
      "count": 2880,
      "type": "SCALAR",
      "name": "Sphere-indices"
    },
    {
      "bufferView": 1,
      "componentType": 5126,
      "count": 2880,
      "min": [
        -0.5083075761795044,
        -0.5234512090682983,
        -0.5037544965744019
      ],
      "max": [
        0.5035512447357178,
        0.5082309246063232,
        0.5180160999298096
      ],
      "type": "VEC3",
      "name": "Sphere-positions"
    },
    {
      "bufferView": 1,
      "byteOffset": 32,
      "componentType": 5126,
      "count": 2880,
      "type": "VEC3",
      "name": "Sphere-normals"
    },
    {
      "bufferView": 1,
      "byteOffset": 64,
      "componentType": 5126,
      "count": 2880,
      "type": "VEC2",
      "name": "Sphere-texCoords0"
    },
    {
      "bufferView": 1,
      "byteOffset": 48,
      "componentType": 5126,
      "count": 2880,
      "type": "VEC4",
      "name": "Sphere-tangents"
    }
  ],
  "asset": {
    "generator": "Fertilizer v1",
    "version": "2.0"
  },
  "bufferViews": [
    {
      "buffer": 0,
      "byteLength": 11520,
      "name": "indexBuffer"
    },
    {
      "buffer": 1,
      "byteLength": 230400,
      "byteStride": 80,
      "name": "vertexBuffer"
    }
  ],
  "extensionsRequired": [
    "KHR_texture_basisu"
  ],
  "meshes": [
    {
      "primitives": [
        {
          "attributes": {
            "NORMAL": 2,
            "POSITION": 1,
            "TANGENT": 4,
            "TEXCOORD_0": 3
          },
          "indices": 0,
          "mode": 4
        }
      ],
      "name": "Sphere"
    }
  ],
  "nodes": [
    {
      "name": "NON-INITIALIZED??",
      "children": [
        1
      ]
    },
    {
      "name": "NON-INITIALIZED??",
      "children": [
        2
      ]
    },
    {
      "matrix": [
        6.883463382720947,
        0.0,
        0.0,
        0.0,
        0.0,
        6.883463382720947,
        0.0,
        0.0,
        0.0,
        0.0,
        6.883463382720947,
        0.0,
        0.0,
        0.0,
        0.0,
        1.0
      ],
      "mesh": 0,
      "name": "Sphere"
    }
  ],
  "scene": 0,
  "scenes": [
    {
      "nodes": [
        0
      ]
    }
  ],
  "samplers": [
    {
      "wrapS": 10497,
      "wrapT": 10497
    }
  ],
  "extensionsUsed": [
    "KHR_texture_basisu"
  ],
  "buffers": [
    {
      "byteLength": 11520,
      "uri": "deformed_sphere2.bin",
      "name": "IndexBuffer"
    },
    {
      "byteLength": 230400,
      "uri": "deformed_sphere20.bin",
      "name": "VertexBuffer"
    }
  ]
}
