{
  "accessors": [
    {
      "bufferView": 0,
      "componentType": 5125,
      "count": 1182,
      "type": "SCALAR",
      "name": "Geometry-indices"
    },
    {
      "bufferView": 1,
      "componentType": 5126,
      "count": 1182,
      "min": [
        -1.0,
        -1.0,
        -1.0
      ],
      "max": [
        1.0,
        1.0,
        8.960128784179688
      ],
      "type": "VEC3",
      "name": "Geometry-positions"
    },
    {
      "bufferView": 1,
      "byteOffset": 32,
      "componentType": 5126,
      "count": 1182,
      "type": "VEC3",
      "name": "Geometry-normals"
    },
    {
      "bufferView": 1,
      "byteOffset": 64,
      "componentType": 5126,
      "count": 1182,
      "type": "VEC2",
      "name": "Geometry-texCoords0"
    },
    {
      "bufferView": 1,
      "byteOffset": 48,
      "componentType": 5126,
      "count": 1182,
      "type": "VEC4",
      "name": "Geometry-tangents"
    }
  ],
  "asset": {
    "generator": "Fertilizer v1",
    "version": "2.0"
  },
  "bufferViews": [
    {
      "buffer": 0,
      "byteLength": 4728,
      "name": "indexBuffer"
    },
    {
      "buffer": 1,
      "byteLength": 94560,
      "byteStride": 80,
      "name": "vertexBuffer"
    }
  ],
  "extensionsRequired": [
    "KHR_texture_basisu"
  ],
  "meshes": [
    {
      "primitives": [
        {
          "attributes": {
            "NORMAL": 2,
            "POSITION": 1,
            "TANGENT": 4,
            "TEXCOORD_0": 3
          },
          "indices": 0,
          "mode": 4
        }
      ],
      "name": "Geometry"
    }
  ],
  "nodes": [
    {
      "name": "NON-INITIALIZED??",
      "children": [
        1
      ]
    },
    {
      "name": "NON-INITIALIZED??",
      "children": [
        2
      ]
    },
    {
      "matrix": [
        12.10385513305664,
        0.0,
        0.0,
        0.0,
        0.0,
        12.10385513305664,
        0.0,
        0.0,
        0.0,
        0.0,
        1.0,
        0.0,
        0.0,
        0.0,
        0.0,
        1.0
      ],
      "mesh": 0,
      "name": "Geometry"
    }
  ],
  "scene": 0,
  "scenes": [
    {
      "nodes": [
        0
      ]
    }
  ],
  "samplers": [
    {
      "wrapS": 10497,
      "wrapT": 10497
    }
  ],
  "extensionsUsed": [
    "KHR_texture_basisu"
  ],
  "buffers": [
    {
      "byteLength": 4728,
      "uri": "scene1.bin",
      "name": "IndexBuffer"
    },
    {
      "byteLength": 94560,
      "uri": "scene10.bin",
      "name": "VertexBuffer"
    }
  ]
}
