{
  "accessors": [
    {
      "bufferView": 0,
      "componentType": 5125,
      "count": 123,
      "type": "SCALAR",
      "name": "Navmesh-indices"
    },
    {
      "bufferView": 1,
      "componentType": 5126,
      "count": 123,
      "min": [
        -11.991701126098633,
        -12.03029727935791,
        1.0502043962478638
      ],
      "max": [
        11.995109558105469,
        11.927096366882325,
        4.179116725921631
      ],
      "type": "VEC3",
      "name": "Navmesh-positions"
    },
    {
      "bufferView": 1,
      "byteOffset": 32,
      "componentType": 5126,
      "count": 123,
      "type": "VEC3",
      "name": "Navmesh-normals"
    },
    {
      "bufferView": 1,
      "byteOffset": 64,
      "componentType": 5126,
      "count": 123,
      "type": "VEC2",
      "name": "Navmesh-texCoords0"
    },
    {
      "bufferView": 1,
      "byteOffset": 48,
      "componentType": 5126,
      "count": 123,
      "type": "VEC4",
      "name": "Navmesh-tangents"
    }
  ],
  "asset": {
    "generator": "Fertilizer v1",
    "version": "2.0"
  },
  "bufferViews": [
    {
      "buffer": 0,
      "byteLength": 492,
      "name": "indexBuffer"
    },
    {
      "buffer": 1,
      "byteLength": 9840,
      "byteStride": 80,
      "name": "vertexBuffer"
    }
  ],
  "extensionsRequired": [
    "KHR_texture_basisu"
  ],
  "meshes": [
    {
      "primitives": [
        {
          "attributes": {
            "NORMAL": 2,
            "POSITION": 1,
            "TANGENT": 4,
            "TEXCOORD_0": 3
          },
          "indices": 0,
          "mode": 4
        }
      ],
      "name": "Navmesh"
    }
  ],
  "nodes": [
    {
      "name": "NON-INITIALIZED??",
      "children": [
        1
      ]
    },
    {
      "name": "NON-INITIALIZED??",
      "children": [
        2
      ]
    },
    {
      "mesh": 0,
      "name": "Navmesh"
    }
  ],
  "scene": 0,
  "scenes": [
    {
      "nodes": [
        0
      ]
    }
  ],
  "samplers": [
    {
      "wrapS": 10497,
      "wrapT": 10497
    }
  ],
  "extensionsUsed": [
    "KHR_texture_basisu"
  ],
  "buffers": [
    {
      "byteLength": 492,
      "uri": "scene1_navmesh_debugview.bin",
      "name": "IndexBuffer"
    },
    {
      "byteLength": 9840,
      "uri": "scene1_navmesh_debugview0.bin",
      "name": "VertexBuffer"
    }
  ]
}
