{
  "accessors": [
    {
      "bufferView": 0,
      "componentType": 5125,
      "count": 2532,
      "type": "SCALAR",
      "name": "Cylinder.002-indices"
    },
    {
      "bufferView": 1,
      "componentType": 5126,
      "count": 2532,
      "min": [
        -15.328983306884766,
        -9.80335807800293,
        -0.16586828231811524
      ],
      "max": [
        7.077576160430908,
        3.3289833068847658,
        6.099999904632568
      ],
      "type": "VEC3",
      "name": "Cylinder.002-positions"
    },
    {
      "bufferView": 1,
      "byteOffset": 32,
      "componentType": 5126,
      "count": 2532,
      "type": "VEC3",
      "name": "Cylinder.002-normals"
    },
    {
      "bufferView": 1,
      "byteOffset": 64,
      "componentType": 5126,
      "count": 2532,
      "type": "VEC2",
      "name": "Cylinder.002-texCoords0"
    },
    {
      "bufferView": 1,
      "byteOffset": 48,
      "componentType": 5126,
      "count": 2532,
      "type": "VEC4",
      "name": "Cylinder.002-tangents"
    }
  ],
  "asset": {
    "generator": "Fertilizer v1",
    "version": "2.0"
  },
  "bufferViews": [
    {
      "buffer": 0,
      "byteLength": 10128,
      "name": "indexBuffer"
    },
    {
      "buffer": 1,
      "byteLength": 202560,
      "byteStride": 80,
      "name": "vertexBuffer"
    }
  ],
  "extensionsRequired": [
    "KHR_texture_basisu"
  ],
  "meshes": [
    {
      "primitives": [
        {
          "attributes": {
            "NORMAL": 2,
            "POSITION": 1,
            "TANGENT": 4,
            "TEXCOORD_0": 3
          },
          "indices": 0,
          "mode": 4
        }
      ],
      "name": "Cylinder.002"
    }
  ],
  "nodes": [
    {
      "name": "NON-INITIALIZED??",
      "children": [
        1
      ]
    },
    {
      "name": "NON-INITIALIZED??",
      "children": [
        2,
        3
      ]
    },
    {
      "mesh": 0,
      "name": "Cylinder.002"
    },
    {
      "matrix": [
        0.9917354583740234,
        -0.1282997578382492,
        0.0,
        0.0,
        0.1282997578382492,
        0.9917354583740234,
        0.0,
        0.0,
        0.0,
        0.0,
        1.0,
        0.22600196301937104,
        0.0,
        0.0,
        0.0,
        1.0
      ],
      "name": "Empty"
    }
  ],
  "scene": 0,
  "scenes": [
    {
      "nodes": [
        0
      ]
    }
  ],
  "samplers": [
    {
      "wrapS": 10497,
      "wrapT": 10497
    }
  ],
  "extensionsUsed": [
    "KHR_texture_basisu"
  ],
  "buffers": [
    {
      "byteLength": 10128,
      "uri": "scene2.bin",
      "name": "IndexBuffer"
    },
    {
      "byteLength": 202560,
      "uri": "scene20.bin",
      "name": "VertexBuffer"
    }
  ]
}
