{
    "asset" : {
        "generator" : "Khronos glTF Blender I/O v3.4.49",
        "version" : "2.0"
    },
    "scene" : 0,
    "scenes" : [
        {
            "name" : "Scene",
            "nodes" : [
                0,
                1
            ]
        }
    ],
    "nodes" : [
        {
            "mesh" : 0,
            "name" : "Cylinder.002"
        },
        {
            "name" : "Empty",
            "rotation" : [
                0,
                0,
                0.06428283452987671,
                0.997931718826294
            ],
            "translation" : [
                0,
                0,
                0.22600196301937103
            ]
        }
    ],
    "meshes" : [
        {
            "name" : "Cylinder.002",
            "primitives" : [
                {
                    "attributes" : {
                        "POSITION" : 0,
                        "TEXCOORD_0" : 1,
                        "NORMAL" : 2
                    },
                    "indices" : 3
                }
            ]
        }
    ],
    "accessors" : [
        {
            "bufferView" : 0,
            "componentType" : 5126,
            "count" : 1464,
            "max" : [
                7.077576160430908,
                3.3289833068847656,
                6.099999904632568
            ],
            "min" : [
                -15.328983306884766,
                -9.80335807800293,
                -0.16586828231811523
            ],
            "type" : "VEC3"
        },
        {
            "bufferView" : 1,
            "componentType" : 5126,
            "count" : 1464,
            "type" : "VEC2"
        },
        {
            "bufferView" : 2,
            "componentType" : 5126,
            "count" : 1464,
            "type" : "VEC3"
        },
        {
            "bufferView" : 3,
            "componentType" : 5123,
            "count" : 2532,
            "type" : "SCALAR"
        }
    ],
    "bufferViews" : [
        {
            "buffer" : 0,
            "byteLength" : 17568,
            "byteOffset" : 0,
            "target" : 34962
        },
        {
            "buffer" : 0,
            "byteLength" : 11712,
            "byteOffset" : 17568,
            "target" : 34962
        },
        {
            "buffer" : 0,
            "byteLength" : 17568,
            "byteOffset" : 29280,
            "target" : 34962
        },
        {
            "buffer" : 0,
            "byteLength" : 5064,
            "byteOffset" : 46848,
            "target" : 34963
        }
    ],
    "buffers" : [
        {
            "byteLength" : 51912,
            "uri" : "scene2.bin"
        }
    ]
}
