{
    "asset" : {
        "generator" : "Khronos glTF Blender I/O v3.4.49",
        "version" : "2.0"
    },
    "scene" : 0,
    "scenes" : [
        {
            "name" : "Scene",
            "nodes" : [
                0
            ]
        }
    ],
    "nodes" : [
        {
            "mesh" : 0,
            "name" : "Navmesh"
        }
    ],
    "meshes" : [
        {
            "name" : "Navmesh",
            "primitives" : [
                {
                    "attributes" : {
                        "POSITION" : 0,
                        "TEXCOORD_0" : 1,
                        "NORMAL" : 2,
                        "TANGENT" : 3
                    },
                    "indices" : 4
                }
            ]
        }
    ],
    "accessors" : [
        {
            "bufferView" : 0,
            "componentType" : 5126,
            "count" : 121,
            "max" : [
                11.995109558105469,
                11.927096366882324,
                4.179116725921631
            ],
            "min" : [
                -11.991701126098633,
                -12.03029727935791,
                1.0502043962478638
            ],
            "type" : "VEC3"
        },
        {
            "bufferView" : 1,
            "componentType" : 5126,
            "count" : 121,
            "type" : "VEC2"
        },
        {
            "bufferView" : 2,
            "componentType" : 5126,
            "count" : 121,
            "type" : "VEC3"
        },
        {
            "bufferView" : 3,
            "componentType" : 5126,
            "count" : 121,
            "type" : "VEC4"
        },
        {
            "bufferView" : 4,
            "componentType" : 5123,
            "count" : 123,
            "type" : "SCALAR"
        }
    ],
    "bufferViews" : [
        {
            "buffer" : 0,
            "byteLength" : 1452,
            "byteOffset" : 0,
            "target" : 34962
        },
        {
            "buffer" : 0,
            "byteLength" : 968,
            "byteOffset" : 1452,
            "target" : 34962
        },
        {
            "buffer" : 0,
            "byteLength" : 1452,
            "byteOffset" : 2420,
            "target" : 34962
        },
        {
            "buffer" : 0,
            "byteLength" : 1936,
            "byteOffset" : 3872,
            "target" : 34962
        },
        {
            "buffer" : 0,
            "byteLength" : 246,
            "byteOffset" : 5808,
            "target" : 34963
        }
    ],
    "buffers" : [
        {
            "byteLength" : 6056,
            "uri" : "scene1_navmesh_debugview.bin"
        }
    ]
}
